<?xml version="1.0" encoding="utf-8"?>
<!-- Generator: Adobe Illustrator 17.0.2, SVG Export Plug-In . SVG Version: 6.00 Build 0)  -->
<!DOCTYPE svg PUBLIC "-//W3C//DTD SVG 1.1//EN" "http://www.w3.org/Graphics/SVG/1.1/DTD/svg11.dtd">
<svg version="1.1" id="Layer_1" xmlns="http://www.w3.org/2000/svg" xmlns:xlink="http://www.w3.org/1999/xlink" x="0px" y="0px"
	 width="264px" height="382px" viewBox="0 0 264 382" enable-background="new 0 0 264 382" xml:space="preserve">
<g>
	<path fill="#FFFFFF" d="M89.05,368.804H68.453c-7.041,0-12.768-5.727-12.768-12.766V154.646c0-4.524,3.667-8.191,8.191-8.191
		s8.191,3.667,8.191,8.191v197.777h13.369V154.646c0-4.524,3.667-8.191,8.191-8.191s8.191,3.667,8.191,8.191v201.392
		C101.818,363.077,96.091,368.804,89.05,368.804z"/>
	<path fill="#FFFFFF" d="M138.68,161.694H18.824c-6.541,0-11.864-5.324-11.864-11.867V23.544c0-6.543,5.322-11.867,11.864-11.867
		H138.68c6.541,0,11.864,5.324,11.864,11.867v126.283C150.544,156.37,145.222,161.694,138.68,161.694z M23.341,145.313h110.821
		V28.059H23.341V145.313z"/>
	<path fill="#FFFFFF" d="M46.887,126.298c-3.619,0-6.553-2.934-6.553-6.553V49.374c0-3.619,2.934-6.553,6.553-6.553
		c3.619,0,6.553,2.934,6.553,6.553v70.371C53.44,123.364,50.506,126.298,46.887,126.298z"/>
	<path fill="#FFFFFF" d="M77.209,116.002c-3.619,0-6.553-2.934-6.553-6.553V57.955c0-3.619,2.934-6.553,6.553-6.553
		c3.619,0,6.553,2.934,6.553,6.553v51.493C83.762,113.068,80.828,116.002,77.209,116.002z"/>
	<path fill="#FFFFFF" d="M108.676,126.298c-3.619,0-6.553-2.934-6.553-6.553V49.374c0-3.619,2.934-6.553,6.553-6.553
		c3.619,0,6.553,2.934,6.553,6.553v70.371C115.229,123.364,112.295,126.298,108.676,126.298z"/>
	<path fill="#FFFFFF" d="M198.568,375.824c-33.907,0-60.467-41.469-60.467-94.412s26.559-94.412,60.467-94.412
		s60.467,41.469,60.467,94.412S232.475,375.824,198.568,375.824z M198.568,200.105c-25.673,0-47.361,37.233-47.361,81.307
		s21.688,81.307,47.361,81.307s47.361-37.233,47.361-81.307S224.241,200.105,198.568,200.105z"/>
	<path fill="#FFFFFF" d="M191.007,372.656c-2.492,0-4.875-1.43-5.97-3.849c-47.12-103.928-2.8-171.761-0.889-174.599
		c2.024-3.001,6.095-3.795,9.095-1.776c3,2.019,3.796,6.082,1.784,9.084c-0.514,0.777-41.954,65.05,1.945,161.878
		c1.496,3.296,0.035,7.18-3.262,8.674C192.832,372.468,191.913,372.653,191.007,372.656z"/>
	<path fill="#FFFFFF" d="M200.23,375.824c-0.926,0-1.859-0.195-2.734-0.598c-2.326-1.069-3.817-3.395-3.817-5.954V193.552
		c0-3.619,2.934-6.553,6.553-6.553c3.08,0,5.663,2.125,6.365,4.988c0.557-0.477,1.203-0.867,1.928-1.145
		c3.38-1.296,7.167,0.403,8.46,3.782c48.054,125.723-9.991,177.479-12.485,179.619C203.289,375.283,201.767,375.824,200.23,375.824z
		 M206.784,204.776v145.81C219.547,329.722,235.546,283.914,206.784,204.776z"/>
	<path fill="#FFFFFF" d="M213.214,205.806c-4.524,0-8.191-3.667-8.191-8.191V26.05h-13.369v171.566c0,4.524-3.667,8.191-8.191,8.191
		c-4.524,0-8.191-3.667-8.191-8.191V22.437c0-7.042,5.727-12.769,12.768-12.769h20.597c7.041,0,12.768,5.727,12.768,12.769v175.178
		C221.404,202.14,217.738,205.806,213.214,205.806z"/>
</g>
</svg>
