<?xml version="1.0" encoding="utf-8"?>
<!-- Generator: Adobe Illustrator 17.0.2, SVG Export Plug-In . SVG Version: 6.00 Build 0)  -->
<!DOCTYPE svg PUBLIC "-//W3C//DTD SVG 1.1//EN" "http://www.w3.org/Graphics/SVG/1.1/DTD/svg11.dtd">
<svg version="1.1" id="Layer_1" xmlns="http://www.w3.org/2000/svg" xmlns:xlink="http://www.w3.org/1999/xlink" x="0px" y="0px"
	 width="282px" height="362px" viewBox="0 0 282 362" enable-background="new 0 0 282 362" xml:space="preserve">
<g>
	<g>
		<path fill="#FFFFFF" d="M191.522,254.793c-59.248,18.508-122.508-14.638-141.016-73.885S65.144,58.4,124.391,39.892
			s122.508,14.638,141.016,73.885C283.914,173.025,250.769,236.285,191.522,254.793z M127.588,50.126
			c-53.605,16.745-83.594,73.98-66.849,127.585s73.98,83.594,127.586,66.848s83.594-73.98,66.849-127.585
			S181.193,33.38,127.588,50.126z"/>
		
			<rect x="52.091" y="140.951" transform="matrix(0.2982 0.9545 -0.9545 0.2982 250.788 -46.7089)" fill="#FFFFFF" width="210.132" height="12.471"/>
		
			<rect x="150.923" y="42.119" transform="matrix(0.2983 0.9545 -0.9545 0.2983 250.7612 -46.7242)" fill="#FFFFFF" width="12.471" height="210.132"/>
		
			<rect x="136.219" y="3.622" transform="matrix(0.2983 0.9545 -0.9545 0.2983 195.5133 -65.7205)" fill="#FFFFFF" width="12.471" height="192.979"/>
		
			<rect x="166.266" y="99.815" transform="matrix(0.2983 0.9545 -0.9545 0.2983 308.4118 -26.9014)" fill="#FFFFFF" width="12.471" height="192.979"/>
		<path fill="#FFFFFF" d="M143.319,257.933c-0.992-0.971-24.556-24.583-45.668-92.158C77.299,100.623,83.099,64.569,83.354,63.065
			l12.293,2.101l-6.147-1.05l6.15,1.035c-0.058,0.341-5.443,34.973,13.904,96.905c20.023,64.09,42.286,86.767,42.508,86.989
			L143.319,257.933z"/>
		<path fill="#FFFFFF" d="M233.282,229.834l-12.244-2.362c0.052-0.283,5.449-31.6-14.57-95.69
			c-19.444-62.236-44.691-87.202-44.944-87.446l8.676-8.956c1.126,1.09,27.789,27.448,48.171,92.682
			C239.481,195.643,233.544,228.47,233.282,229.834z"/>
	</g>
	<g>
		<path fill="#FFFFFF" d="M156.315,292.173c-21.624,0-43.074-4.643-63.051-13.873c-35.853-16.561-62.668-45.893-75.506-82.599
			C4.917,158.998,7.599,119.343,25.311,84.043C42.98,48.83,73.503,22.161,111.259,8.958c4.058-1.425,8.506,0.722,9.928,4.783
			s-0.718,8.509-4.783,9.928C82.49,35.532,55.088,59.457,39.242,91.033c-15.8,31.494-18.205,66.839-6.774,99.523
			c11.435,32.684,35.345,58.82,67.332,73.594c32.072,14.817,68.406,16.446,102.33,4.579c4.058-1.428,8.506,0.718,9.928,4.783
			c1.422,4.061-0.718,8.509-4.783,9.928C190.61,289.272,173.406,292.173,156.315,292.173z"/>
	</g>
	<rect x="148" y="287" fill="#FFFFFF" width="16" height="56"/>
	<path fill="#FFFFFF" d="M208.699,353H105.825c-4.305,0-7.794-3.195-7.794-7.5s3.489-7.5,7.794-7.5h102.875
		c4.305,0,7.794,3.195,7.794,7.5S213.004,353,208.699,353z"/>
</g>
</svg>
