<?xml version="1.0" encoding="utf-8"?>
<!-- Generator: Adobe Illustrator 17.0.2, SVG Export Plug-In . SVG Version: 6.00 Build 0)  -->
<!DOCTYPE svg PUBLIC "-//W3C//DTD SVG 1.1//EN" "http://www.w3.org/Graphics/SVG/1.1/DTD/svg11.dtd">
<svg version="1.1" id="Layer_1" xmlns="http://www.w3.org/2000/svg" xmlns:xlink="http://www.w3.org/1999/xlink" x="0px" y="0px"
	 width="310px" height="298px" viewBox="0 0 310 298" enable-background="new 0 0 310 298" xml:space="preserve">
<g>
	<path fill="#FFFFFF" d="M219.902,290.003c-2.067,0-4.102-1.65-5.657-3.135L167.081,241H23.53C14.165,241,8,236.843,8,226.969
		V25.077C8,15.431,13.886,9,23.53,9h266.132C303.445,9,303,21.379,303,25.077v201.891c0,10.466-4.191,14.031-13.338,14.031H228
		v40.812c0,3.276-1.91,6.239-4.924,7.529C222.039,289.785,220.986,290.003,219.902,290.003z M24,225h146.36
		c2.105,0,4.277,1.488,5.8,2.944L212,262.676v-28.127c0-4.524,3.374-9.548,7.899-9.548H286V26H24V225z"/>
	<path fill="#FFFFFF" d="M157.123,159.073c-5.459,0-9.883-4.424-9.883-9.883l-7.906-98.074c0-5.459,12.331-9.883,17.789-9.883
		c5.459,0,17.79,4.424,17.79,9.883l-7.906,98.074C167.006,154.648,162.582,159.073,157.123,159.073z"/>
	<circle fill="#FFFFFF" cx="157.123" cy="189.1" r="15.848"/>
</g>
</svg>
