<?xml version="1.0" encoding="utf-8"?>
<!-- Generator: Adobe Illustrator 17.0.2, SVG Export Plug-In . SVG Version: 6.00 Build 0)  -->
<!DOCTYPE svg PUBLIC "-//W3C//DTD SVG 1.1//EN" "http://www.w3.org/Graphics/SVG/1.1/DTD/svg11.dtd">
<svg version="1.1" id="Layer_1" xmlns="http://www.w3.org/2000/svg" xmlns:xlink="http://www.w3.org/1999/xlink" x="0px" y="0px"
	 width="282px" height="406px" viewBox="0 0 282 406" enable-background="new 0 0 282 406" xml:space="preserve">
<g>
	<path fill="#FFFFFF" d="M256.861,242.034H23.96c-8.33,0-15.108-6.777-15.108-15.108v-43.815c0-8.332,6.778-15.108,15.108-15.108
		h232.901c8.33,0,15.108,6.777,15.108,15.108v43.815C271.969,235.258,265.191,242.034,256.861,242.034z M25.233,225.653h230.354
		v-41.268H25.233V225.653z"/>
	<path fill="#FFFFFF" d="M229.19,394.227H51.631c-8.33,0-15.108-6.709-15.108-14.955V241.759c0-8.245,6.778-14.955,15.108-14.955
		H229.19c8.33,0,15.108,6.709,15.108,14.955v137.513C244.298,387.518,237.52,394.227,229.19,394.227z M52.904,377.845h175.012
		V243.186H52.904V377.845z"/>
	<path fill="#FFFFFF" d="M137.521,179.288c-1.062,0-2.14-0.259-3.137-0.803c-3.172-1.734-4.34-5.711-2.611-8.885
		c1.144-2.115,26.907-51.161-11.938-98.181c-2.305-2.79-1.912-6.921,0.878-9.224c2.79-2.304,6.917-1.92,9.226,0.88
		c44.629,54.021,13.656,112.224,13.337,112.806C142.085,178.056,139.839,179.288,137.521,179.288z"/>
	<path fill="#FFFFFF" d="M109.711,80.531c-6.577,0-16.782-2.23-28.041-12.865C65.028,51.946,61.711,19.439,61.578,18.063
		c-0.184-1.907,0.474-3.798,1.803-5.177c1.328-1.379,3.192-2.131,5.103-1.993c1.601,0.093,39.386,2.483,55.974,18.148
		c10.229,9.663,11.896,19.149,11.496,25.408c-0.586,9.173-5.644,15.806-8.607,18.945C123,77.997,116.737,80.531,109.711,80.531z
		 M75.874,24.798c1.841,9.499,6.058,25.088,14.795,33.339c6.341,5.99,13.105,9.288,19.042,9.288c3.384,0,6.263-1.075,8.109-3.03
		c1.408-1.491,4.721-5.529,5.055-10.782c0.323-5.033-2.172-10.091-7.415-15.044C106.881,30.464,88.131,26.426,75.874,24.798z"/>
	<path fill="#FFFFFF" d="M159.054,105.084c-8.906,0-16.937-5.065-21.482-13.553c-2.891-5.398-2.956-12.091-0.178-18.369
		c2.884-6.517,8.61-12.213,16.559-16.468c6.074-3.257,13.998-4.905,23.55-4.905c10.551,0,19.493,2.025,19.869,2.112
		c1.865,0.429,3.451,1.651,4.339,3.35c0.888,1.696,0.989,3.695,0.278,5.471c-1.208,3.014-12.259,29.701-28.409,38.35
		C168.613,103.734,163.724,105.084,159.054,105.084z M177.504,64.895c-7.266,0-13.27,1.158-17.364,3.35
		c-6.759,3.619-9.583,7.554-10.762,10.219c-1.133,2.56-1.224,5.065-0.253,6.879c1.069,1.997,4.174,6.636,9.928,6.636
		c2.488,0,5.294-0.825,8.34-2.457c7.482-4.009,14.608-15.547,18.956-24.121C183.742,65.115,180.694,64.895,177.504,64.895z"/>
</g>
</svg>
