<?xml version="1.0" encoding="utf-8"?>
<!-- Generator: Adobe Illustrator 17.0.2, SVG Export Plug-In . SVG Version: 6.00 Build 0)  -->
<!DOCTYPE svg PUBLIC "-//W3C//DTD SVG 1.1//EN" "http://www.w3.org/Graphics/SVG/1.1/DTD/svg11.dtd">
<svg version="1.1" id="Layer_1" xmlns="http://www.w3.org/2000/svg" xmlns:xlink="http://www.w3.org/1999/xlink" x="0px" y="0px"
	 width="450px" height="270px" viewBox="0 0 450 270" enable-background="new 0 0 450 270" xml:space="preserve">
<g>
	<path fill="#FFFFFF" d="M34.943,261c-0.002,0-0.002,0-0.002,0c-2.166,0-3.924-0.224-5.225-0.345
		c-13.692-1.277-20.779-17.337-20.493-46.286c0.158-15.959,17.751-24.495,40.023-35.245c10.89-5.26,23.234-11.238,34.941-18.709
		c24.081-15.367,68.206-93.187,87.048-126.415c10.527-18.557,11.664-20.418,13.52-22.044c2.12-1.859,4.483-2.805,7.018-2.805
		c3.71,0,6.22,1.861,9.399,4.222c1.273,0.944,2.905,2.156,5.074,3.634c13.788,9.391,15.91,23.206,16.09,29.679
		c3.58,4.284,14.787,15.108,36.595,15.108c6.669-0.003,13.865-1.027,21.387-3.046c13.704-3.686,14.873-11.035,15.761-23.712
		c0.656-9.375,1.555-22.218,15.18-26.319c1.353-0.41,2.763-0.614,4.188-0.614c13.72,0,25.323,19.015,36.033,38.494
		c1.286,2.339,2.502,4.547,3.035,5.343c4.795,7.17,17.29,37.611,18.588,40.797c0.386,0.528,1.549,1.645,2.332,2.396
		c2.608,2.505,5.854,5.625,7.591,10.095c0.264,0.682,0.605,1.469,0.981,2.342c2.766,6.418,7.396,17.166,3.916,28.252
		c-2.846,9.068-19.296,16.826-88.007,41.501c-11.01,3.955-21.41,7.689-28.636,10.495c-11.283,4.383-16.626,7.57-23.393,11.605
		c-10.912,6.505-24.493,14.763-67.174,31.346C119.499,254.553,58.598,261,34.943,261z M193.495,28.06
		c-2.083,3.561-4.994,8.696-8.008,14.011c-33.747,59.508-68.309,116.7-92.488,132.132c-12.523,7.992-25.331,14.174-36.63,19.629
		c-14.393,6.949-30.706,14.827-30.764,20.615c-0.202,20.221,3.803,28.892,5.66,29.743c0.8,0.067,2.048,0.102,3.675,0.102
		c0.654,0,66.162-0.33,139.843-28.956c41.402-16.091,54.331-23.795,64.719-29.986c7.13-4.252,13.288-7.922,25.849-12.801
		c7.421-2.886,17.436-6.482,29.031-10.645c24.817-8.911,70.462-25.302,78.176-32.024c1.016-5.132-1.734-11.512-3.593-15.831
		c-0.464-1.075-0.88-2.048-1.208-2.889c-0.426-1.097-2.224-2.825-3.668-4.214c-2.267-2.176-4.836-4.646-6.145-8.008
		c-1.91-4.921-13.787-33.019-17.046-37.892c-0.928-1.389-2.12-3.555-3.771-6.556c-12.613-22.941-18.676-29.023-21.565-29.941
		c-1.872,0.758-2.515,2.697-3.14,11.634c-0.825,11.778-2.204,31.493-27.852,38.385c-8.908,2.393-17.534,3.606-25.638,3.609
		c-36.096,0-51.166-23.52-51.789-24.521c-0.977-1.571-1.397-3.427-1.185-5.266c0.034-0.368,0.904-11.144-8.93-17.841
		C195.673,29.625,194.508,28.796,193.495,28.06z"/>
	<path fill="#FFFFFF" d="M174.868,87.15c-0.253,0-0.507-0.013-0.765-0.045l-18.373-2.137c-3.595-0.416-6.17-3.67-5.753-7.266
		c0.419-3.593,3.663-6.175,7.266-5.75l18.373,2.137c3.595,0.416,6.17,3.67,5.753,7.266C180.98,84.692,178.147,87.15,174.868,87.15z"
		/>
	<path fill="#FFFFFF" d="M153.386,114.768c-0.256,0-0.515-0.013-0.776-0.045l-14.702-1.734c-3.593-0.426-6.164-3.683-5.74-7.276
		c0.426-3.593,3.678-6.182,7.276-5.74l14.702,1.734c3.593,0.426,6.164,3.683,5.74,7.276
		C159.492,112.317,156.662,114.768,153.386,114.768z"/>
	<path fill="#FFFFFF" d="M133.59,140.838c-0.123,0-0.245-0.003-0.368-0.01l-13.371-0.739c-3.614-0.202-6.381-3.292-6.182-6.905
		c0.202-3.615,3.324-6.383,6.905-6.182l13.371,0.739c3.614,0.202,6.382,3.292,6.182,6.905
		C139.933,138.138,137.043,140.838,133.59,140.838z"/>
	<path fill="#FFFFFF" d="M113.633,204.634c-1.387,0-2.785-0.438-3.972-1.344l-32.099-24.512c-2.876-2.198-3.427-6.31-1.23-9.186
		s6.313-3.42,9.184-1.232l32.099,24.512c2.876,2.198,3.427,6.31,1.23,9.186C117.556,203.747,115.606,204.634,113.633,204.634z"/>
	<path fill="#FFFFFF" d="M313.238,127.499c-3.254,0-6.074-2.419-6.493-5.73c-4.558-36.088,28.37-78.68,29.773-80.475
		c2.227-2.851,6.341-3.353,9.195-1.129c2.851,2.227,3.356,6.345,1.131,9.199c-0.31,0.397-30.97,40.106-27.097,70.761
		c0.453,3.593-2.089,6.869-5.681,7.324C313.789,127.483,313.512,127.499,313.238,127.499z"/>
	<path fill="#FFFFFF" d="M32.667,221.524c-14.843,0-17.777-2.844-19.392-6.265c-1.622-3.43-0.363-6.937,1.606-8.888
		c2.569-2.54,6.719-2.528,9.266,0.042c0.494,0.499,0.891,1.056,1.192,1.651c3.34,0.458,11.562,0.816,30.719-1.139
		c56.418-5.778,287.044-100.965,305.36-116.019c2.795-2.297,6.927-1.894,9.223,0.902c2.299,2.796,1.894,6.924-0.901,9.221
		c-22.902,18.823-256.576,113.222-312.348,118.93C46.71,221.054,38.703,221.524,32.667,221.524z"/>
	<path fill="#FFFFFF" d="M409.441,157.562c-3.468,0-6.362-2.72-6.54-6.223l-2.04-40.407c-0.182-3.612,2.6-6.69,6.215-6.873
		c3.617-0.195,6.69,2.598,6.874,6.214l2.04,40.407c0.182,3.612-2.6,6.69-6.215,6.873
		C409.663,157.559,409.551,157.562,409.441,157.562z"/>
	<path fill="#FFFFFF" d="M432.229,161.725c-3.468,0-6.362-2.72-6.54-6.223l-2.04-40.407c-0.182-3.612,2.6-6.69,6.215-6.873
		c3.596-0.208,6.69,2.598,6.874,6.214l2.04,40.407c0.182,3.612-2.6,6.69-6.215,6.873
		C432.452,161.721,432.34,161.725,432.229,161.725z"/>
</g>
</svg>
