<?xml version="1.0" encoding="utf-8"?>
<!-- Generator: Adobe Illustrator 17.0.2, SVG Export Plug-In . SVG Version: 6.00 Build 0)  -->
<!DOCTYPE svg PUBLIC "-//W3C//DTD SVG 1.1//EN" "http://www.w3.org/Graphics/SVG/1.1/DTD/svg11.dtd">
<svg version="1.1" id="Layer_1" xmlns="http://www.w3.org/2000/svg" xmlns:xlink="http://www.w3.org/1999/xlink" x="0px" y="0px"
	 width="228px" height="352px" viewBox="0 0 228 352" enable-background="new 0 0 228 352" xml:space="preserve">
<g>
	<path fill="#FFFFFF" d="M203.797,338.886H83.676c-7.698,0-12.872-7.74-12.872-19.261V94.568c0-11.518,5.174-19.258,12.872-19.258
		h120.121c7.698,0,12.869,7.74,12.869,19.258v225.056C216.665,331.146,211.495,338.886,203.797,338.886z M87.429,322.504H200.04
		c0.141-0.777,0.243-1.753,0.243-2.88V94.568c0-1.126-0.102-2.099-0.243-2.876H87.429c-0.141,0.777-0.243,1.75-0.243,2.876v225.056
		C87.186,320.751,87.288,321.727,87.429,322.504z"/>
	<path fill="#FFFFFF" d="M132.287,213.767c-0.765,0-1.539-0.134-2.297-0.419c-3.388-1.267-5.106-5.042-3.839-8.434l72.419-193.576
		c1.27-3.392,5.049-5.106,8.434-3.839c3.388,1.267,5.106,5.042,3.839,8.434l-72.419,193.576
		C137.438,212.142,134.939,213.767,132.287,213.767z"/>
	<path fill="#FFFFFF" d="M120.094,125.86"/>
	<path fill="#FFFFFF" d="M77.226,151.581c-38.251,0-69.369-31.119-69.369-69.369s31.119-69.369,69.369-69.369
		s69.369,31.119,69.369,69.369c0,4.524-3.667,8.191-8.191,8.191c-4.524,0-8.191-3.667-8.191-8.191
		c0-29.218-23.769-52.988-52.988-52.988S24.238,52.993,24.238,82.212s23.769,52.988,52.988,52.988c4.524,0,8.191,3.667,8.191,8.191
		S81.75,151.581,77.226,151.581z"/>
	<path fill="#FFFFFF" d="M63.081,72.61c-1.766,0-3.526-0.71-4.819-2.109l-9.176-9.941c-2.454-2.659-2.288-6.805,0.371-9.259
		c2.665-2.451,6.809-2.281,9.259,0.371l9.176,9.941c2.454,2.659,2.288,6.805-0.371,9.259C66.261,72.034,64.668,72.61,63.081,72.61z"
		/>
	<path fill="#FFFFFF" d="M86.805,65.795c-0.086,0-0.176-0.003-0.266-0.006c-3.615-0.144-6.431-3.193-6.284-6.809l0.541-13.518
		c0.144-3.612,3.072-6.444,6.809-6.284c3.615,0.144,6.431,3.193,6.284,6.809l-0.541,13.518
		C93.207,63.03,90.305,65.795,86.805,65.795z"/>
	<path fill="#FFFFFF" d="M53.971,93.721c-0.086,0-0.176-0.003-0.266-0.006l-13.518-0.541c-3.615-0.144-6.431-3.193-6.284-6.809
		c0.144-3.612,3.072-6.431,6.809-6.284l13.518,0.541c3.615,0.144,6.431,3.193,6.284,6.809
		C60.374,90.956,57.472,93.721,53.971,93.721z"/>
</g>
</svg>
